HIERARCHY
ROOT Hips
{
	OFFSET 0.000000 0.000000 0.000000
	CHANNELS 6 Xposition Yposition Zposition Zrotation Yrotation Xrotation 
	JOINT LeftUpLeg_virtual
	{
		OFFSET 0.000000 0.000000 0.000000
		CHANNELS 3 Zrotation Yrotation Xrotation
		JOINT LeftUpLeg
		{
			OFFSET 10.205400 -3.823500 0.155100
			CHANNELS 3 Zrotation Yrotation Xrotation
			JOINT LeftLeg
			{
				OFFSET 0.708757 -12.982077 0.567790
				CHANNELS 3 Zrotation Yrotation Xrotation
				JOINT LeftFoot
				{
					OFFSET -0.708756 -10.717838 -2.184338
					CHANNELS 3 Zrotation Yrotation Xrotation
					JOINT LeftToeBase
					{
						OFFSET 0.108149 -7.191104 7.560241
						CHANNELS 3 Zrotation Yrotation Xrotation
						End Site
						{
							OFFSET 0.000000 0.000000 0.000000
						}
					}
				}
			}
		}
	}
	JOINT RightUpLeg_virtual
	{
		OFFSET 0.000000 0.000000 0.000000
		CHANNELS 3 Zrotation Yrotation Xrotation
		JOINT RightUpLeg
		{
			OFFSET -10.205400 -3.823500 0.005500
			CHANNELS 3 Zrotation Yrotation Xrotation
			JOINT RightLeg
			{
				OFFSET -0.708756 -12.982134 0.610632
				CHANNELS 3 Zrotation Yrotation Xrotation
				JOINT RightFoot
				{
					OFFSET 0.708754 -10.717769 -1.945823
					CHANNELS 3 Zrotation Yrotation Xrotation
					JOINT RightToeBase
					{
						OFFSET -0.108140 -7.191069 7.372968
						CHANNELS 3 Zrotation Yrotation Xrotation
						End Site
						{
							OFFSET 0.000000 0.000000 0.000000
						}
					}
				}
			}
		}
	}
	JOINT Spine_virtual
	{
		OFFSET 0.000000 0.000000 0.000000
		CHANNELS 3 Zrotation Yrotation Xrotation
		JOINT Spine
		{
			OFFSET 0.000000 6.876099 0.125700
			CHANNELS 3 Zrotation Yrotation Xrotation
			JOINT Spine1
			{
				OFFSET 0.000000 8.022060 0.146608
				CHANNELS 3 Zrotation Yrotation Xrotation
				JOINT Spine2
				{
					OFFSET 0.000000 9.168068 0.167552
					CHANNELS 3 Zrotation Yrotation Xrotation
					JOINT Neck_virtual
					{
						OFFSET 0.000000 0.000000 0.000000
						CHANNELS 3 Zrotation Yrotation Xrotation
						JOINT Neck
						{
							OFFSET 0.000000 10.314075 0.188496
							CHANNELS 3 Zrotation Yrotation Xrotation
							JOINT Head
							{
								OFFSET 0.000000 7.643700 -2.377400
								CHANNELS 3 Zrotation Yrotation Xrotation
								End Site
								{
									OFFSET 0.000000 0.000000 0.000000
								}
							}
						}
					}
					JOINT LeftShoulder_virtual
					{
						OFFSET 0.000000 0.000000 0.000000
						CHANNELS 3 Zrotation Yrotation Xrotation
						JOINT LeftShoulder
						{
							OFFSET 4.392200 8.824978 0.174984
							CHANNELS 3 Zrotation Yrotation Xrotation
							JOINT LeftArm
							{
								OFFSET 8.771219 -2.981674 -0.026999
								CHANNELS 3 Zrotation Yrotation Xrotation
								JOINT LeftForeArm
								{
									OFFSET 8.512804 0.000000 -0.000000
									CHANNELS 3 Zrotation Yrotation Xrotation
									JOINT LeftHand
									{
										OFFSET 18.484802 0.000000 -0.000000
										CHANNELS 3 Zrotation Yrotation Xrotation
										End Site
										{
											OFFSET 0.000000 0.000000 0.000000
										}
									}
								}
							}
						}
					}
					JOINT RightShoulder_virtual
					{
						OFFSET 0.000000 0.000000 0.000000
						CHANNELS 3 Zrotation Yrotation Xrotation
						JOINT RightShoulder
						{
							OFFSET -4.392200 8.824993 0.141379
							CHANNELS 3 Zrotation Yrotation Xrotation
							JOINT RightArm
							{
								OFFSET -8.771282 -2.981682 -0.094208
								CHANNELS 3 Zrotation Yrotation Xrotation
								JOINT RightForeArm
								{
									OFFSET -8.494598 0.000000 0.000000
									CHANNELS 3 Zrotation Yrotation Xrotation
									JOINT RightHand
									{
										OFFSET -18.483803 0.000000 0.000001
										CHANNELS 3 Zrotation Yrotation Xrotation
										End Site
										{
											OFFSET 0.000000 0.000000 0.000000
										}
									}
								}
							}
						}
					}
				}
			}
		}
	}
}
MOTION
Frames: 14
Frame Time: 0.033333
-25.929321 36.336681 -12.319672 -179.973108 13.537169 -179.941101 -2.514397 -2.060846 7.790961 -3.782788 4.135531 -19.682570 7.933544 0.071884 21.211892 -4.285309 -2.122474 7.580810 0.000000 0.000000 0.000000 1.691711 -0.122734 6.871572 5.151096 2.596400 -15.092649 -9.278359 1.050337 17.573682 6.278843 1.857242 13.575286 0.000000 0.000000 0.000000 -0.214623 1.679604 -5.316674 3.015368 -1.090485 -12.262625 -1.242108 -2.968727 11.842395 -0.020593 -0.024064 0.005158 -1.621068 -0.830083 13.476691 -0.347374 -2.519377 14.624693 0.000000 0.000000 0.000000 0.363498 -0.334562 10.943337 -10.846271 -3.223740 3.055212 -55.800265 19.860833 16.063850 1.302895 -49.701958 6.404566 0.000000 0.000000 0.000000 -3.824679 0.963446 10.223869 25.794438 4.822694 7.262955 55.261749 -16.809065 6.405134 -4.733654 31.681395 -3.917129 0.000000 0.000000 0.000000 
-26.015486 36.341621 -12.223890 -179.943519 13.503997 179.896473 -2.560842 -1.976561 7.713218 -3.910521 3.937335 -19.563431 7.774229 -0.376419 20.811100 -4.671716 -2.474854 7.671125 0.000000 0.000000 0.000000 1.779360 -0.357194 6.849942 4.976383 2.619187 -14.944715 -9.487444 0.781973 17.274180 6.112596 1.556484 14.115237 0.000000 0.000000 0.000000 -0.202518 1.646401 -5.254922 2.982332 -1.120545 -12.061983 -1.218694 -2.949942 11.913981 0.010570 -0.019416 -0.011446 -1.634603 -0.796253 13.435095 -0.350299 -2.533137 14.529125 0.000000 0.000000 0.000000 0.344146 -0.374771 10.884269 -10.868788 -3.281624 2.979944 -55.784604 19.574349 16.176526 1.418416 -49.976388 6.228516 0.000000 0.000000 0.000000 -3.868060 0.952555 10.162303 25.625466 4.780312 7.263755 55.263136 -16.794561 6.314260 -4.724653 31.683345 -3.914510 0.000000 0.000000 0.000000 
-26.119156 36.336296 -12.123131 -179.989527 13.388001 179.919040 -2.615345 -1.966251 7.438687 -4.144975 3.880354 -19.638245 7.945266 -0.467062 20.868468 -4.642261 -2.435279 7.741784 0.000000 0.000000 0.000000 1.710478 -0.523670 6.661571 4.787152 2.948925 -14.844393 -9.509158 0.756934 16.876078 6.269471 1.459679 14.501590 0.000000 0.000000 0.000000 -0.208922 1.703005 -5.269443 2.899508 -1.229696 -11.927325 -1.233328 -2.973544 11.870137 -0.014528 -0.092854 -0.005337 -1.595066 -0.853833 13.497944 -0.302433 -2.542984 14.342340 0.000000 0.000000 0.000000 0.361710 -0.449671 10.929259 -10.801551 -3.255952 2.951074 -55.883150 19.010073 16.038546 1.527670 -50.518224 6.099416 0.000000 0.000000 0.000000 -3.830401 0.879731 10.284323 25.532570 4.920965 7.281392 55.212893 -16.703692 6.492316 -4.844054 31.822036 -3.991450 0.000000 0.000000 0.000000 
-26.240007 36.322517 -12.060856 -179.904942 13.486599 179.907920 -2.540854 -1.898466 7.261178 -4.403762 3.793854 -19.765265 8.175730 -0.133642 21.092259 -4.711148 -2.436630 7.753804 0.000000 0.000000 0.000000 1.788824 -0.589882 6.501900 4.521562 3.359070 -14.715485 -9.518742 0.837073 16.660389 6.458006 1.326736 14.607444 0.000000 0.000000 0.000000 -0.120624 1.610596 -5.217464 2.847047 -1.227564 -11.770437 -1.208493 -2.911126 11.933142 0.015250 -0.031999 -0.033795 -1.626378 -0.751214 13.499879 -0.247026 -2.603113 14.094613 0.000000 0.000000 0.000000 0.295264 -0.460985 10.979022 -10.752575 -3.297385 2.889158 -55.832179 18.379371 15.848368 1.315184 -51.152530 6.232896 0.000000 0.000000 0.000000 -3.867328 0.981402 10.242399 25.400340 4.875763 7.138056 55.094215 -16.806474 6.638240 -4.908692 32.098713 -4.045589 0.000000 0.000000 0.000000 
-26.373102 36.301556 -12.063935 -179.903535 13.799641 179.950623 -2.516620 -1.868201 7.231428 -4.813364 3.809749 -19.905688 8.488657 0.155185 21.463695 -4.746685 -2.320729 7.724157 0.000000 0.000000 0.000000 1.814760 -0.543824 6.370707 4.152410 3.705985 -14.763254 -9.506304 0.925797 16.733695 6.760850 1.219640 14.501900 0.000000 0.000000 0.000000 -0.094567 1.601907 -5.218018 2.763450 -1.257106 -11.648288 -1.200566 -2.878670 11.944001 -0.000378 -0.007864 0.003135 -1.639449 -0.691720 13.477109 -0.175904 -2.678305 13.802437 0.000000 0.000000 0.000000 0.295278 -0.294924 10.981327 -10.705051 -3.381921 2.845856 -55.893070 17.825079 15.729017 1.289006 -51.928757 6.224179 0.000000 0.000000 0.000000 -3.874455 1.039237 10.307783 25.276742 5.105871 7.002844 54.943913 -16.919009 6.771693 -4.975348 32.354265 -4.053413 0.000000 0.000000 0.000000 
-26.529215 36.265682 -12.132347 -179.881870 14.135710 179.990429 -2.450387 -2.094132 7.246548 -5.334587 3.890072 -20.035983 8.923188 0.539827 22.009861 -4.779854 -2.113102 7.340203 0.000000 0.000000 0.000000 1.876751 -0.626698 6.279175 3.667946 3.869008 -14.991031 -9.403014 1.236177 17.302657 7.148628 1.176428 14.165111 0.000000 0.000000 0.000000 -0.050148 1.486237 -5.268443 2.701594 -1.206489 -11.497428 -1.257000 -2.759541 11.953466 0.004110 0.035088 -0.023313 -1.606594 -0.687585 13.521935 -0.127390 -2.793440 13.467192 0.000000 0.000000 0.000000 0.306936 -0.314846 11.038734 -10.730225 -3.450427 2.850020 -56.036928 17.480848 15.677154 1.269123 -52.618886 6.212152 0.000000 0.000000 0.000000 -3.823685 1.051014 10.363035 25.207040 5.295983 6.951496 54.799048 -17.038407 6.855057 -5.217929 32.567278 -4.258498 0.000000 0.000000 0.000000 
-26.707376 36.206608 -12.210223 -179.850861 14.521141 -179.951224 -2.446919 -2.254015 7.207689 -5.916833 3.864473 -20.171068 9.389966 0.865160 22.953911 -4.864940 -1.868857 6.652319 0.000000 0.000000 0.000000 1.858412 -0.667726 6.138715 3.150348 3.796617 -15.438519 -9.305720 1.266034 18.293953 7.664396 1.266572 13.677773 0.000000 0.000000 0.000000 -0.056561 1.433011 -5.413420 2.595044 -1.212816 -11.305032 -1.167991 -2.761522 11.940815 0.001319 -0.006778 -0.000457 -1.639610 -0.540390 13.500358 -0.085917 -2.941576 13.134464 0.000000 0.000000 0.000000 0.252723 -0.160807 11.037625 -10.817802 -3.524169 2.830485 -56.188548 17.288624 15.676459 1.173863 -53.236164 6.294054 0.000000 0.000000 0.000000 -3.880355 1.170726 10.382172 25.052659 5.506639 6.696572 54.657073 -17.240123 6.793885 -5.317623 32.726319 -4.294896 0.000000 0.000000 0.000000 
-26.883654 36.127377 -12.283992 -179.863032 14.876157 -179.965676 -2.405981 -2.345798 7.064391 -6.520595 3.579889 -20.155287 9.925509 1.122055 23.784798 -4.957531 -1.497347 5.896925 0.000000 0.000000 0.000000 1.876882 -0.626399 5.924714 2.575514 3.269700 -16.055676 -9.103064 1.207209 19.853427 8.383364 1.586309 12.893178 0.000000 0.000000 0.000000 -0.060087 1.405607 -5.636978 2.513290 -1.200577 -10.993691 -1.176818 -2.784505 11.989480 -0.053553 -0.023479 -0.022122 -1.571154 -0.528241 13.545740 -0.016697 -3.099025 12.819327 0.000000 0.000000 0.000000 0.315115 -0.074739 11.060402 -10.941657 -3.654115 2.933981 -56.345167 17.267903 15.492647 1.067508 -53.686130 6.391565 0.000000 0.000000 0.000000 -3.804340 1.247693 10.474315 24.870537 5.774779 6.483524 54.526472 -17.361158 6.882779 -5.476584 32.923575 -4.390174 0.000000 0.000000 0.000000 
-27.044333 36.031849 -12.326873 -179.849932 15.011892 -179.855150 -2.351021 -2.247642 6.744881 -7.215659 3.373768 -20.290781 10.559800 0.962145 24.726335 -5.220747 -1.097951 5.231093 0.000000 0.000000 0.000000 2.009643 -0.544950 5.667839 1.921491 2.385769 -17.082595 -8.926886 1.015059 22.327854 9.127129 2.110298 11.836629 0.000000 0.000000 0.000000 -0.075884 1.439832 -6.008647 2.445876 -1.155593 -10.635480 -1.151656 -2.670986 12.078592 -0.001690 -0.014381 -0.004902 -1.576345 -0.496804 13.651575 0.002641 -3.310325 12.552569 0.000000 0.000000 0.000000 0.280576 -0.099050 11.209816 -11.074264 -3.980731 2.858176 -56.412616 17.350769 15.473363 1.122716 -53.797684 6.384514 0.000000 0.000000 0.000000 -3.857581 1.204371 10.542596 24.619772 5.922795 6.332464 54.390169 -17.377849 7.091073 -5.715805 33.176654 -4.518750 0.000000 0.000000 0.000000 
-27.176901 35.924507 -12.340887 -179.975826 15.025018 -179.940255 -2.376182 -1.966148 6.389259 -7.884658 2.590054 -20.223504 11.269711 0.768789 25.289557 -5.557485 -0.564912 4.750451 0.000000 0.000000 0.000000 2.029824 -0.126676 5.646488 1.418561 0.966709 -18.393785 -8.842488 0.788579 25.232700 9.735041 2.602372 10.844727 0.000000 0.000000 0.000000 -0.120433 1.599597 -6.319327 2.357220 -1.156115 -10.190087 -1.214477 -2.645779 12.246106 -0.008545 -0.040662 0.038108 -1.570933 -0.526278 13.735113 0.093476 -3.525906 12.256041 0.000000 0.000000 0.000000 0.293117 -0.029385 11.259925 -11.219689 -4.272829 2.924089 -56.384246 17.390116 15.219210 0.942486 -53.628214 6.624330 0.000000 0.000000 0.000000 -3.819723 1.262539 10.608569 24.421398 6.179096 6.151951 54.270204 -17.222230 7.439695 -5.902401 33.543510 -4.617221 0.000000 0.000000 0.000000 
-27.272215 35.815754 -12.362853 179.959502 14.802832 -179.849276 -2.304671 -1.585833 5.985231 -8.572704 1.664272 -20.149772 12.050265 0.526452 25.728085 -5.849447 0.113665 4.374050 0.000000 0.000000 0.000000 2.085266 0.334413 5.611009 0.812421 0.216881 -20.348172 -8.690103 0.992240 28.756821 10.379905 3.368650 10.840098 0.000000 0.000000 0.000000 -0.138714 1.854843 -6.746688 2.312929 -1.133746 -9.690078 -1.259512 -2.625999 12.452773 0.003024 -0.024218 0.020059 -1.654288 -0.530163 13.919826 0.174296 -3.828527 11.921451 0.000000 0.000000 0.000000 0.197328 -0.077678 11.366172 -11.365927 -4.653279 2.961698 -56.209373 17.372615 15.207334 0.969423 -53.129159 6.678881 0.000000 0.000000 0.000000 -3.906625 1.202409 10.782594 24.243464 6.447177 5.990110 54.105647 -16.804794 7.884444 -6.101118 33.887092 -4.722811 0.000000 0.000000 0.000000 
-27.321398 35.710945 -12.402037 179.981249 14.457349 -179.955090 -2.136226 -1.258085 5.683468 -9.175271 0.557210 -19.899616 12.884428 0.187971 26.080154 -6.469322 0.708294 3.976945 0.000000 0.000000 0.000000 2.140602 0.632072 5.600960 0.138023 0.226132 -22.709148 -8.559534 1.299227 32.891056 10.924070 4.194969 11.608935 0.000000 0.000000 0.000000 -0.006295 1.921930 -6.852164 2.324569 -1.022132 -9.201258 -1.336503 -2.585848 12.627416 0.030274 0.012062 0.013225 -1.767047 -0.465285 14.185938 0.315570 -4.171474 11.538612 0.000000 0.000000 0.000000 0.070695 -0.081912 11.544255 -11.532586 -5.000536 3.074660 -55.906058 17.186216 15.201913 0.710803 -52.324925 7.022252 0.000000 0.000000 0.000000 -3.971480 1.275668 11.014938 24.164666 6.773938 5.857238 53.933561 -16.159172 8.228792 -6.291209 34.187508 -4.881448 0.000000 0.000000 0.000000 
-27.310568 35.619545 -12.476163 179.938479 13.969058 -179.966496 -2.021752 -1.141935 5.451858 -9.606085 -0.262355 -19.657558 13.599891 0.116149 26.351845 -7.351446 1.239631 3.488001 0.000000 0.000000 0.000000 2.163702 0.839188 5.421996 -0.494315 0.561078 -25.368316 -8.349578 1.665042 37.277089 11.520468 5.024577 13.310175 0.000000 0.000000 0.000000 0.107201 2.075986 -7.070178 2.292731 -0.874277 -8.657306 -1.454682 -2.592404 12.783744 -0.006437 -0.042098 0.029045 -1.842329 -0.371480 14.420589 0.538503 -4.564042 11.101943 0.000000 0.000000 0.000000 -0.019548 0.006531 11.694174 -11.576218 -5.455761 3.242365 -55.504921 16.797194 15.313791 0.623850 -51.122873 7.192976 0.000000 0.000000 0.000000 -4.015750 1.325132 11.222330 24.171520 7.121242 5.681182 53.675175 -15.282915 8.483430 -6.498942 34.333831 -5.055426 0.000000 0.000000 0.000000 
-27.258089 35.558071 -12.598745 179.975676 13.318891 179.998598 -1.837079 -1.263414 5.448476 -9.895301 -0.699921 -19.370567 14.217708 0.120154 26.540561 -8.313784 1.603994 3.040425 0.000000 0.000000 0.000000 2.146620 0.703120 5.208416 -1.190410 1.131090 -27.964717 -8.377037 1.810743 41.059815 11.634370 5.154429 16.402540 0.000000 0.000000 0.000000 0.343482 1.913226 -7.247544 2.319069 -0.484265 -8.082860 -1.501639 -2.464175 12.970729 0.005287 -0.102139 -0.012441 -1.996002 -0.491214 14.645357 0.855166 -5.001303 10.537651 0.000000 0.000000 0.000000 -0.170027 -0.044898 11.877036 -11.645295 -5.855512 3.231364 -54.949470 16.395604 15.475498 0.526482 -49.680614 7.379187 0.000000 0.000000 0.000000 -4.099934 1.278620 11.422004 24.224026 7.457772 5.517769 53.262625 -14.200382 8.612083 -6.658138 34.375099 -5.199353 0.000000 0.000000 0.000000 
